<?xml version="1.0" encoding="UTF-8"?>
<svg width="519px" height="194px" viewBox="0 0 519 194" version="1.1" xmlns="http://www.w3.org/2000/svg" xmlns:xlink="http://www.w3.org/1999/xlink">
    <!-- Generator: Sketch 41.2 (35397) - http://www.bohemiancoding.com/sketch -->
    <title>intel nuc</title>
    <desc>Created with Sketch.</desc>
    <defs></defs>
    <g id="Page-1" stroke="none" stroke-width="1" fill="none" fill-rule="evenodd">
        <g id="intel-nuc">
            <g id="Page-1">
                <g id="intel-nuc">
                    <g id="Intel-logo-1">
                        <path d="M292.28737,55.058565 C278.50683,-12.11587 148.525,-16.369963 64.737895,34.808098 L64.737895,40.460487 C148.41497,-2.7316788 267.14859,-2.4562338 277.95315,59.422033 C281.59385,79.920851 270.12707,101.24048 249.56679,113.50757 L249.56679,129.56114 C274.31695,120.47998 299.61629,91.08816 292.28737,55.058565 L292.28737,55.058565 Z M139.92617,172.67053 C82.102616,178.02238 21.853265,169.59848 13.418485,124.23687 C9.2296052,101.90025 19.426965,78.192925 32.877897,63.483967 L32.877897,55.608451 C8.6234054,76.957185 -4.5514356,103.96031 3.0555709,135.84419 C12.756767,176.75954 64.462304,199.91949 143.39931,192.20804 C174.65361,189.19069 215.55609,179.09205 243.94244,163.42581 L243.94244,141.16845 C218.14544,156.61695 175.47938,169.38024 139.92617,172.67053 Z" id="path6" fill="#2B6FC4"></path>
                        <path d="M239.31142,45.347552 L224.15342,45.347552 L224.15342,113.16 C224.15342,121.1244 227.95767,128.05143 239.31142,129.14959" id="path8" fill="#2B6FC4"></path>
                        <path d="M58.729915,70.130433 L43.57092,70.130433 L43.57092,114.42193 C43.57092,122.38934 47.375174,129.31386 58.729915,130.41152" id="path10" fill="#2B6FC4"></path>
                        <rect id="rect12" fill="#2B6FC4" x="43.570919" y="47.40823" width="15.158995" height="14.425744"></rect>
                        <path d="M149.57135,129.69867 C137.2803,129.69867 132.09859,121.12491 132.09859,112.66317 L132.09859,53.837923 L147.09203,53.837923 L147.09203,70.130433 L158.44627,70.130433 L158.44627,82.329722 L147.09203,82.329722 L147.09203,111.75641 C147.09203,115.21716 148.74557,117.11508 152.32725,117.11508 L158.44627,117.11508 L158.44627,129.69867 L149.57135,129.69867" id="path14" fill="#2B6FC4"></path>
                        <path d="M189.42548,81.588742 C184.30029,81.588742 180.33248,84.253255 178.67794,87.85316 C177.68611,90.022849 177.3545,91.672094 177.19095,94.338616 L200.39759,94.338616 C200.06648,87.82553 197.14302,81.588742 189.42548,81.588742 M177.19095,104.61387 C177.19095,112.33513 182.03904,118.01982 190.52834,118.01982 C197.19954,118.01982 200.50663,116.15155 204.3654,112.33563 L213.62645,121.26456 C207.67299,127.14267 201.44444,130.71544 190.41981,130.71544 C176.03357,130.71544 162.25152,122.82991 162.25152,99.85904 C162.25152,80.21479 174.26798,69.115166 190.0887,69.115166 C206.12948,69.115166 215.33351,82.110693 215.33351,99.173822 L215.33351,104.61437 L177.19095,104.61437" id="path16" fill="#2B6FC4"></path>
                        <path d="M99.576374,82.329722 C103.98533,82.329722 105.80493,84.500918 105.80493,88.045061 L105.80493,129.78055 L120.85388,129.78055 L120.85388,87.990304 C120.85388,79.499933 116.33339,70.129931 103.15955,70.129931 L72.125329,70.129931 L72.125329,129.78005 L87.118769,129.78005 L87.118769,82.329219" id="path18" fill="#2B6FC4"></path>
                        <g id="text2177" transform="translate(252.531331, 43.813143)" font-size="14.0353012" font-family="ArialMT, Arial" fill="#127CC1" font-weight="normal">
                            <g id="tspan2179">
                                <text id="®">
                                    <tspan x="0" y="13">®</tspan>
                                </text>
                            </g>
                        </g>
                    </g>
                    <path d="M373.205078,138 L342.6875,79.9921875 L342.6875,138 L333.996094,138 L333.996094,70.421875 L347.228516,70.421875 L375.207031,123.498047 L375.207031,70.421875 L383.898438,70.421875 L383.898438,138 L373.205078,138 Z M452.501953,109.777344 C452.501953,117.166704 451.671883,122.993468 450.011719,127.257812 C448.351554,131.522157 445.739276,134.63085 442.174805,136.583984 C438.610334,138.537119 433.621777,139.513672 427.208984,139.513672 C420.828744,139.513672 415.799498,138.520843 412.121094,136.535156 C408.44269,134.549469 405.781584,131.408225 404.137695,127.111328 C402.493807,122.814432 401.671875,117.036495 401.671875,109.777344 L401.671875,70.421875 L410.705078,70.421875 L410.705078,108.800781 C410.705078,114.72529 411.242182,119.290674 412.316406,122.49707 C413.39063,125.703467 415.09146,128.006503 417.418945,129.40625 C419.746431,130.805997 422.960917,131.505859 427.0625,131.505859 C431.196635,131.505859 434.435535,130.814135 436.779297,129.430664 C439.123059,128.047194 440.823888,125.841812 441.881836,122.814453 C442.939784,119.787094 443.46875,115.181021 443.46875,108.996094 L443.46875,70.421875 L452.501953,70.421875 L452.501953,109.777344 Z" id="NU" fill="#2B6FC4"></path>
                    <path d="M518.082031,126.183594 C515.933583,129.634132 513.744477,132.24641 511.514649,134.020508 C509.28482,135.794605 506.688817,137.137365 503.726563,138.048828 C500.764308,138.960291 497.28127,139.416016 493.277344,139.416016 C483.153595,139.416016 475.691105,136.494495 470.889649,130.651367 C466.088192,124.808239 463.6875,115.994851 463.6875,104.210938 C463.6875,92.4595767 466.071916,83.6543262 470.84082,77.7949219 C475.609724,71.9355176 482.958284,69.0058594 492.886719,69.0058594 C496.825541,69.0058594 500.34113,69.4941357 503.433594,70.4707031 C506.526057,71.4472705 509.138336,72.7900305 511.270508,74.4990234 C513.40268,76.2080164 515.347648,78.6087085 517.105469,81.7011719 L509.683594,86.5839844 C508.251295,84.1751182 506.802742,82.3440818 505.337891,81.0908203 C503.87304,79.8375588 502.115245,78.8447302 500.064453,78.1123047 C498.013662,77.3798792 495.621108,77.0136719 492.886719,77.0136719 C486.115852,77.0136719 481.143571,79.2678811 477.969727,83.7763672 C474.795883,88.2848533 473.208984,95.0963086 473.208984,104.210938 C473.208984,113.195357 474.771469,119.974261 477.896484,124.547852 C481.0215,129.121442 486.050747,131.408203 492.984375,131.408203 C496.82554,131.408203 500.162095,130.651375 502.994141,129.137695 C505.826186,127.624016 508.365223,125.011737 510.611328,121.300781 L518.082031,126.183594 Z" id="C" fill="#2B6FC4"></path>
                </g>
            </g>
        </g>
    </g>
</svg>